<?xml version="1.0" encoding="UTF-8" standalone="no"?>
<!DOCTYPE svg PUBLIC "-//W3C//DTD SVG 1.1//EN" "http://www.w3.org/Graphics/SVG/1.1/DTD/svg11.dtd">
<svg width="100%" height="100%" viewBox="0 0 128 128" version="1.1" xmlns="http://www.w3.org/2000/svg" xmlns:xlink="http://www.w3.org/1999/xlink" xml:space="preserve" xmlns:serif="http://www.serif.com/" style="fill-rule:evenodd;clip-rule:evenodd;stroke-linejoin:round;stroke-miterlimit:2;">
    <g transform="matrix(1.51806,0,0,1.51806,1.25815,0)">
        <g id="_レイヤー_1-2_" serif:id="_レイヤー_1-2">
            <g>
                <g transform="matrix(1,0,0,1,0,-1)">
                    <path d="M38.79,76L15.47,76L15.47,71.43L38.78,71.43C42.61,71.43 46.23,70.66 49.53,69.15C52.87,67.62 55.83,65.53 58.33,62.96C60.82,60.39 62.8,57.37 64.21,53.99C65.61,50.62 66.33,47.06 66.33,43.41C66.33,39.76 65.61,36.14 64.18,32.76C62.74,29.37 60.75,26.36 58.26,23.82C55.76,21.27 52.8,19.2 49.45,17.66C46.15,16.14 42.56,15.38 38.79,15.38L17.76,15.38L17.76,54.06L13.19,54.06L13.19,10.81L38.79,10.81C43.23,10.81 47.46,11.72 51.36,13.51C55.21,15.28 58.63,17.67 61.52,20.62C64.42,23.57 66.73,27.06 68.38,30.98C70.05,34.92 70.89,39.1 70.89,43.41C70.89,47.72 70.06,51.81 68.42,55.74C66.79,59.66 64.5,63.16 61.6,66.14C58.71,69.12 55.28,71.53 51.43,73.3C47.53,75.09 43.27,76 38.78,76L38.79,76ZM34.87,62.65L28.95,62.65L28.95,35.83L33.52,35.83L33.52,58.08L34.86,58.08C37.29,58.08 39.47,57.7 41.33,56.96C43.17,56.23 44.73,55.21 45.98,53.94C47.22,52.68 48.19,51.14 48.85,49.39C49.53,47.6 49.87,45.58 49.87,43.4C49.87,41.22 49.52,39.29 48.82,37.47C48.13,35.68 47.15,34.14 45.9,32.86C44.65,31.59 43.09,30.58 41.25,29.84C39.38,29.09 37.24,28.72 34.86,28.72L31.24,28.72L31.24,24.15L34.86,24.15C37.82,24.15 40.53,24.64 42.94,25.6C45.37,26.57 47.46,27.94 49.15,29.66C50.84,31.38 52.16,33.46 53.07,35.83C53.97,38.17 54.43,40.72 54.43,43.4C54.43,46.08 53.99,48.69 53.12,51C52.23,53.35 50.93,55.42 49.24,57.14C47.55,58.86 45.46,60.23 43.03,61.2C40.63,62.16 37.88,62.65 34.87,62.65Z" style="fill:rgb(255,0,180);fill-rule:nonzero;"/>
                </g>
                <g transform="matrix(1,0,0,1,-0.658735,0)">
                    <path d="M4.61,32.38L0,32.38L0,0L252.87,0L252.87,4.61L4.61,4.61L4.61,32.38Z" style="fill:rgb(129,209,0);fill-rule:nonzero;"/>
                </g>
                <g transform="matrix(1,0,0,1,-169.551,-1.02191)">
                    <path d="M252.87,85.34L0,85.34L0,80.73L248.27,80.73L248.27,52.95L252.87,52.95L252.87,85.34Z" style="fill:rgb(74,187,243);fill-rule:nonzero;"/>
                </g>
            </g>
        </g>
    </g>
</svg>
