<?xml version="1.0" encoding="UTF-8"?>
<svg id="_レイヤー_2" data-name="レイヤー 2" xmlns="http://www.w3.org/2000/svg" viewBox="0 0 253.46 245.17">
  <defs>
    <style>
      .cls-1 {
        fill: #ff00b4;
      }

      .cls-2 {
        fill: #4abbf3;
      }

      .cls-3 {
        fill: #81d100;
      }
    </style>
  </defs>
  <g id="_レイヤー_1-2" data-name="レイヤー 1">
    <g>
      <g>
        <g>
          <path d="m12.41,16.17h-2.01v-5.99c-.56.56-.98.91-1.62,1.35l-.73-2.36c1.79-1.11,2.94-2.53,3.85-4.42h-3.51v-1.89h2.01V.27h2.01v2.58h1.65v1.89c-.34.96-.67,1.6-1.25,2.45.49.57,1.01,1.11,1.59,1.57v-.71h9.43v8.12h-1.91v-.66h-5.6v.66h-1.92v-6.5l-.69,1.35c-.56-.69-.81-1.06-1.3-1.79v6.94ZM24.31,2.45h-10.29V.71h10.29v1.74Zm-1.01,4.84h-8.35V3.21h8.35v4.08Zm-6.97,2.26v1.47h1.97v-1.47h-1.97Zm0,2.85v1.48h1.97v-1.48h-1.97Zm.57-7.78v1.25h4.46v-1.25h-4.46Zm3.05,4.93v1.47h1.97v-1.47h-1.97Zm0,2.85v1.48h1.97v-1.48h-1.97Z"/>
          <path d="m31.93,11.41h-2.97V1.28h4.96c.14-.32.27-.71.34-1.06h2.4c-.12.37-.27.73-.44,1.06h5.54v5.6h-10.72v.73h12.47v1.47h-12.47v.81h12.02c-.05,1.38-.15,4.02-.69,5.23-.3.68-.93,1.03-1.65,1.03h-2.16l-.44-1.94h1.69c.51,0,.76-.1.88-.62.15-.71.19-1.47.2-2.18h-6.95v2.08h2.04v-1.57h1.99v3.24h-8.05v.69h-2.04v-3.93h2.04v1.57h2.03v-2.08Zm-.89-8.71v.83h8.61v-.83h-8.61Zm0,2.03v.84h8.61v-.84h-8.61Z"/>
          <path d="m52.21,1.89c2.09-.1,4.19-.2,6.26-.27,1.2-.03,2.38-.07,3.56-.12l.07,2.24c-.62,0-1.1-.02-1.59-.02-.37,0-.73.02-1.23.05-.76.15-1.33.3-2.04.66-1.01.51-1.94,1.18-2.7,2.03-.88.96-1.59,2.19-1.59,3.53s.79,2.08,1.94,2.45c1.43.47,3.17.61,4.67.61.32,0,.64-.02.96-.03l-.32,2.41c-2.35-.02-4.81-.08-6.97-1.13-1.52-.74-2.62-2.31-2.62-4.03,0-2.82,2.09-5.03,4.32-6.45-2.48.22-4.98.39-7.46.64l-.08-2.36c1.6,0,3.21-.12,4.81-.2Zm7.83,6.21l-1.35.76c-.44-.88-.93-1.74-1.52-2.53l1.32-.69c.61.74,1.13,1.59,1.55,2.46Zm2.19-1.16l-1.3.81c-.49-.88-.91-1.62-1.55-2.4l1.33-.69c.51.59,1.2,1.59,1.52,2.28Z"/>
          <path d="m69.87.73l2.35.14c-.1.96-.22,1.94-.37,2.92h1.81c3,0,3.66,2.23,3.66,4.78,0,1.54-.27,4.59-1.23,5.79-.71.89-1.6,1.11-2.7,1.11-.84,0-1.69-.07-2.51-.17l-.13-2.18c.71.12,1.43.22,2.16.22.64,0,1.32-.14,1.59-.78.46-1.06.64-3.26.64-4.42,0-1.52-.35-2.26-1.91-2.26h-.07l-1.65.02c-.54,2.97-1.37,6.8-2.78,9.45l-2.19-1.01c1.42-2.58,2.28-5.5,2.75-8.42l-2.5.03v-2.16h2.82c.12-1.01.22-2.04.29-3.05Zm11.98,9.21l-2.38.39c-.17-2.65-.67-4.96-2.33-7.09l1.92-1c1.91,2.38,2.53,4.71,2.78,7.7Z"/>
          <path d="m92.46.78v4.19c2.87.96,5.65,2.16,8.3,3.59l-1.11,2.38c-1.47-.96-5.55-3.11-7.19-3.59v8.32h-2.41V.78h2.41Zm6.01,3.14l-1.35.71c-.39-.89-.86-1.74-1.42-2.55l1.33-.66c.56.81,1.03,1.6,1.43,2.5Zm2.35-1.03l-1.38.73c-.37-.81-.89-1.7-1.4-2.43l1.3-.64c.62.83,1.01,1.43,1.49,2.35Z"/>
          <path d="m119.98,7.02v2.4h-14.95v-2.4h14.95Z"/>
          <path d="m130.37,6.94l-.93,2.09c-1.48-.83-3.16-1.45-4.78-1.94l.83-1.96c1.79.47,3.22.96,4.88,1.81Zm-4.76,5.86c2.55-.22,5.45-.69,7.48-2.4,2.04-1.72,3.12-4.24,3.92-6.72l2.09,1.01c-2.41,6.9-5.57,9.64-12.88,10.51l-.61-2.41Zm6.23-9.81l-.96,2.08c-1.59-.79-3.16-1.38-4.88-1.84l.89-1.96c1.7.44,3.34.96,4.94,1.72Zm5.55-.14l-1.5.32c-.19-.91-.42-1.82-.74-2.7l1.43-.25c.39.91.59,1.65.81,2.63Zm2.4-.39l-1.43.34c-.2-.84-.47-1.72-.83-2.51l1.4-.29c.37.78.64,1.64.86,2.46Z"/>
          <path d="m155.69,4.57v10.46h-9.87v-1.99h7.73v-2.41h-7.34v-1.91h7.34v-2.23h-7.54v-1.92h9.69Z"/>
          <path d="m177.68,7.02v2.4h-14.95v-2.4h14.95Z"/>
          <path d="m187.48,2.28c1.03-.94,2.87-1.08,4.18-1.08,3.12,0,5.43.59,5.43,4.22,0,.94-.15,1.91-.76,2.65-.71.86-1.74,1.27-2.82,1.42l-3.16.49c-.47.07-1.1.2-1.42.56-.35.37-.46,1.08-.46,1.57v.39h8.54v2.14h-10.89v-1.87c0-1.35.08-2.6.98-3.7.59-.73,1.5-.98,2.4-1.13l3.29-.49c1.37-.22,1.96-.52,1.96-2.01,0-.76-.19-1.43-.93-1.79-.57-.27-1.6-.32-2.25-.32-2.56,0-2.89.83-2.9,2.53h-2.31c0-1.32.08-2.63,1.1-3.58Z"/>
          <path d="m201.46,4.73c.17-.88.41-1.59,1.01-2.26.98-1.11,2.92-1.27,4.32-1.27s3.27.14,4.32,1.27c1.18,1.27,1.23,3.86,1.23,5.52,0,1.06-.05,2.23-.25,3.27-.15.88-.39,1.57-.98,2.24-.98,1.11-2.94,1.27-4.32,1.27s-3.27-.13-4.32-1.27c-1.18-1.27-1.25-3.86-1.25-5.52,0-1.01.05-2.26.24-3.26Zm2.65-.59c-.51.69-.52,2.94-.52,3.85,0,.96.03,2.09.2,3.04.07.35.2.78.49,1.01.71.59,1.75.61,2.63.61.79,0,2.06-.08,2.57-.81.49-.69.51-2.94.51-3.85s-.02-3.14-.51-3.85c-.52-.76-1.87-.81-2.68-.81s-2.16.05-2.68.81Z"/>
          <path d="m217.81,2.28c1.03-.94,2.87-1.08,4.18-1.08,3.12,0,5.43.59,5.43,4.22,0,.94-.15,1.91-.76,2.65-.71.86-1.74,1.27-2.82,1.42l-3.16.49c-.47.07-1.1.2-1.42.56-.35.37-.46,1.08-.46,1.57v.39h8.54v2.14h-10.89v-1.87c0-1.35.08-2.6.98-3.7.59-.73,1.5-.98,2.4-1.13l3.29-.49c1.37-.22,1.96-.52,1.96-2.01,0-.76-.19-1.43-.93-1.79-.57-.27-1.6-.32-2.25-.32-2.56,0-2.89.83-2.9,2.53h-2.31c0-1.32.08-2.63,1.1-3.58Z"/>
          <path d="m237.46,1.2c2.58,0,4.98.59,4.98,3.68,0,1.37-.44,2.36-1.79,2.82.79.29,1.35.67,1.67,1.47.22.54.32,1.11.32,1.69,0,1.06-.32,2.23-1.18,2.92-1.06.88-2.77,1-4.1,1-1.57,0-4.1-.12-5.06-1.52-.66-.95-.71-2.13-.71-3.22h2.36v.51c0,.81.17,1.47.98,1.81.51.22,1.82.3,2.41.3.74,0,1.79-.08,2.41-.54.44-.32.54-.95.54-1.47,0-1.57-.93-1.89-2.31-1.89h-2.08v-1.91h2.06c.62,0,1.35,0,1.79-.52.27-.34.35-.79.35-1.2,0-1.65-1.35-1.79-2.67-1.79-3,0-3.14.69-3.22,2.23h-2.35c.1-3.95,2.14-4.35,5.59-4.35Z"/>
        </g>
        <path class="cls-1" d="m38.79,98.44H15.47v-4.57h23.31c3.83,0,7.45-.77,10.75-2.28,3.34-1.53,6.3-3.62,8.8-6.19,2.49-2.57,4.47-5.59,5.88-8.97,1.4-3.37,2.12-6.93,2.12-10.58s-.72-7.27-2.15-10.65c-1.44-3.39-3.43-6.4-5.92-8.94-2.5-2.55-5.46-4.62-8.81-6.16-3.3-1.52-6.89-2.28-10.66-2.28h-21.03v38.68h-4.57v-43.25h25.6c4.44,0,8.67.91,12.57,2.7,3.85,1.77,7.27,4.16,10.16,7.11,2.9,2.95,5.21,6.44,6.86,10.36,1.67,3.94,2.51,8.12,2.51,12.43s-.83,8.4-2.47,12.33c-1.63,3.92-3.92,7.42-6.82,10.4-2.89,2.98-6.32,5.39-10.17,7.16-3.9,1.79-8.16,2.7-12.65,2.7Zm-3.94-13.35h-5.9v-26.82h4.57v22.25h1.34c2.43,0,4.61-.38,6.47-1.12,1.84-.73,3.4-1.75,4.65-3.02,1.24-1.26,2.21-2.8,2.87-4.55.68-1.79,1.02-3.81,1.02-5.99s-.35-4.11-1.05-5.93c-.69-1.79-1.67-3.33-2.92-4.61-1.25-1.27-2.81-2.28-4.65-3.02-1.87-.75-4.01-1.12-6.39-1.12h-3.62v-4.57h3.62c2.96,0,5.67.49,8.08,1.45,2.43.97,4.52,2.34,6.21,4.06,1.69,1.72,3.01,3.8,3.92,6.17.9,2.34,1.36,4.89,1.36,7.57s-.44,5.29-1.31,7.6c-.89,2.35-2.19,4.42-3.88,6.14-1.69,1.72-3.78,3.09-6.21,4.06-2.4.96-5.15,1.45-8.16,1.45Z"/>
        <path class="cls-1" d="m115.44,98.44h-25.12v-4.57h20.56v-8.78h-18.73v-15.02h17.69v-8.78h-17.69v-14.7h18.73v-11.06h4.57v15.63h-18.73v5.56h17.69v17.91h-17.69v5.89h18.73v17.91Zm-34.49-2.28h-4.57v-62.9h26.76v4.57h-22.2v58.34Z"/>
        <path class="cls-1" d="m153.59,100.13c-4.46,0-8.79-.86-12.89-2.54-4.09-1.69-7.74-4.09-10.86-7.16-3.11-3.05-5.64-6.72-7.52-10.9-1.89-4.22-2.85-8.87-2.85-13.84s.95-9.59,2.81-13.76l4.17,1.87c-1.6,3.57-2.41,7.57-2.41,11.89s.83,8.34,2.45,11.97c1.65,3.66,3.85,6.87,6.55,9.52,2.7,2.65,5.86,4.73,9.4,6.19,5.27,2.17,11,2.77,16.91,1.64,1.96-.38,4.12-.98,6.42-1.8l.09-.03v-12c-3.46,2.45-7.24,3.68-11.3,3.68v-4.57c4.42,0,8.32-1.87,11.92-5.71l3.95-4.21v26.05l-3.14,1.1c-2.5.89-4.88,1.55-7.08,1.98-2.22.43-4.45.64-6.62.64Zm-12.28-20.78c-1.68-1.7-3-3.74-3.94-6.04-.94-2.3-1.41-4.83-1.41-7.54s.48-5.16,1.42-7.46c.94-2.3,2.25-4.32,3.9-6,1.65-1.68,3.64-3.03,5.92-4,2.29-.98,4.79-1.47,7.45-1.47,4.2,0,7.95,1.21,11.22,3.62v-11.93c-1.93-.74-3.79-1.3-5.56-1.69-2.16-.47-4.39-.71-6.63-.71-3.92,0-7.71.74-11.28,2.2-3.57,1.46-6.75,3.53-9.45,6.12l-3.17-3.29c3.12-3,6.78-5.38,10.89-7.06,4.12-1.69,8.5-2.54,13.01-2.54,2.56,0,5.12.27,7.6.82,2.46.54,5.06,1.38,7.75,2.49l1.41.59v26.72l-4.05-4.94c-3.22-3.93-7.06-5.84-11.74-5.84-2.04,0-3.94.37-5.66,1.1-1.72.74-3.22,1.74-4.45,3-1.23,1.25-2.22,2.78-2.93,4.53-.71,1.75-1.08,3.68-1.08,5.73s.36,4.06,1.08,5.81c.72,1.75,1.72,3.29,2.97,4.57l-3.26,3.2Z"/>
        <path class="cls-1" d="m242.47,98.44h-21.75l-4.15-12.07,4.32-1.48,3.09,8.99h11.86l-21.34-56.05h-15.63v-4.57h18.78l24.81,65.19Zm-48.23,0h-21.75l19.04-50.02,4.27,1.62-16.68,43.83h11.86l3.62-10.53h12.87v4.57h-9.61l-3.62,10.53Zm20.32-22.51h-17.37l10.29-29.36,5.73,16.35-4.31,1.51-1.42-4.06-3.86,11h10.93v4.57Z"/>
        <g>
          <path d="m6.12,113.9h23.58c4.17,0,8.09.84,11.75,2.52,3.66,1.68,6.86,3.92,9.59,6.71,2.74,2.79,4.89,6.04,6.46,9.76,1.57,3.71,2.36,7.6,2.36,11.67s-.77,7.87-2.32,11.59c-1.54,3.71-3.69,6.98-6.42,9.8-2.74,2.82-5.94,5.07-9.59,6.75-3.66,1.68-7.6,2.52-11.83,2.52H6.12v-61.3Zm15.94,47.81h3.66c2.76,0,5.23-.43,7.4-1.3,2.17-.87,4-2.06,5.49-3.58,1.49-1.52,2.63-3.32,3.42-5.41.79-2.09,1.18-4.38,1.18-6.87s-.41-4.72-1.22-6.83c-.81-2.11-1.97-3.93-3.46-5.45-1.49-1.52-3.32-2.71-5.49-3.58-2.17-.87-4.61-1.3-7.32-1.3h-3.66v34.31Z"/>
          <path d="m67.27,144.55c0-4.55.84-8.79,2.52-12.72,1.68-3.93,4.01-7.36,6.99-10.29,2.98-2.93,6.55-5.22,10.69-6.87,4.15-1.65,8.71-2.48,13.7-2.48s9.48.83,13.66,2.48c4.17,1.65,7.76,3.94,10.77,6.87,3.01,2.93,5.35,6.36,7.03,10.29,1.68,3.93,2.52,8.17,2.52,12.72s-.84,8.79-2.52,12.72c-1.68,3.93-4.03,7.36-7.03,10.29-3.01,2.93-6.6,5.22-10.77,6.87-4.17,1.65-8.73,2.48-13.66,2.48s-9.55-.83-13.7-2.48c-4.15-1.65-7.71-3.94-10.69-6.87-2.98-2.93-5.31-6.35-6.99-10.29-1.68-3.93-2.52-8.17-2.52-12.72Zm16.67,0c0,2.44.46,4.69,1.38,6.75.92,2.06,2.17,3.85,3.74,5.37,1.57,1.52,3.4,2.7,5.49,3.54,2.09.84,4.3,1.26,6.63,1.26s4.54-.42,6.63-1.26c2.09-.84,3.93-2.02,5.53-3.54,1.6-1.52,2.86-3.31,3.78-5.37.92-2.06,1.38-4.31,1.38-6.75s-.46-4.69-1.38-6.75c-.92-2.06-2.18-3.85-3.78-5.37-1.6-1.52-3.44-2.7-5.53-3.54-2.09-.84-4.3-1.26-6.63-1.26s-4.54.42-6.63,1.26c-2.09.84-3.92,2.02-5.49,3.54-1.57,1.52-2.82,3.31-3.74,5.37-.92,2.06-1.38,4.31-1.38,6.75Z"/>
          <path d="m175.4,113.9v42.52c0,1.79-.1,3.44-.29,4.96-.19,1.52-.5,2.82-.93,3.9-.71,1.74-1.67,3.32-2.89,4.76-1.22,1.44-2.64,2.66-4.27,3.66s-3.43,1.79-5.41,2.36c-1.98.57-4.05.85-6.22.85-6.56,0-11.9-3.01-16.02-9.02l10.41-10.65c.27,1.84.87,3.31,1.79,4.39.92,1.08,2.06,1.63,3.42,1.63,2.98,0,4.47-2.36,4.47-7.07v-42.28h15.94Z"/>
          <path d="m185.57,144.55c0-4.55.84-8.79,2.52-12.72,1.68-3.93,4.01-7.36,6.99-10.29,2.98-2.93,6.54-5.22,10.69-6.87,4.15-1.65,8.71-2.48,13.7-2.48s9.48.83,13.66,2.48c4.17,1.65,7.76,3.94,10.77,6.87,3.01,2.93,5.35,6.36,7.03,10.29,1.68,3.93,2.52,8.17,2.52,12.72s-.84,8.79-2.52,12.72c-1.68,3.93-4.03,7.36-7.03,10.29-3.01,2.93-6.6,5.22-10.77,6.87-4.17,1.65-8.73,2.48-13.66,2.48s-9.55-.83-13.7-2.48c-4.15-1.65-7.71-3.94-10.69-6.87-2.98-2.93-5.31-6.35-6.99-10.29-1.68-3.93-2.52-8.17-2.52-12.72Zm16.67,0c0,2.44.46,4.69,1.38,6.75.92,2.06,2.17,3.85,3.74,5.37,1.57,1.52,3.4,2.7,5.49,3.54,2.09.84,4.3,1.26,6.63,1.26s4.54-.42,6.63-1.26c2.09-.84,3.93-2.02,5.53-3.54,1.6-1.52,2.86-3.31,3.78-5.37.92-2.06,1.38-4.31,1.38-6.75s-.46-4.69-1.38-6.75c-.92-2.06-2.18-3.85-3.78-5.37-1.6-1.52-3.44-2.7-5.53-3.54-2.09-.84-4.3-1.26-6.63-1.26s-4.54.42-6.63,1.26c-2.09.84-3.92,2.02-5.49,3.54-1.57,1.52-2.82,3.31-3.74,5.37-.92,2.06-1.38,4.31-1.38,6.75Z"/>
        </g>
        <polygon class="cls-3" points="4.61 54.82 0 54.82 0 22.44 252.87 22.44 252.87 27.05 4.61 27.05 4.61 54.82"/>
        <polygon class="cls-2" points="252.87 107.78 0 107.78 0 103.17 248.27 103.17 248.27 75.39 252.87 75.39 252.87 107.78"/>
      </g>
      <g>
        <path d="m7.77,192.78c2.13-1.9,6.13-2.03,8.88-2.03,2.52,0,6.62.1,8.78,1.39,2.32,1.39,2.9,4.36,2.9,6.84,0,2.23-.35,4.23-1.97,5.87-1.29,1.29-2.97,1.9-4.74,2.13l-7.84.97c-1.65.19-2.71.48-2.71,2.39v.81h17.07v5.29H5.29v-5.07c0-2.29.13-4.36,1.61-6.2,1.23-1.52,2.81-2.07,4.68-2.29l8.26-.97c2-.23,2.74-.61,2.74-2.78,0-2.78-1.65-3.1-5.78-3.1-4.97,0-5.29.68-5.36,3.84h-5.68c0-2.97.03-5.33,2-7.1Z"/>
        <path d="m39.08,216.11c-1.29-.39-2.26-.9-3.1-2-1.06-1.39-1.52-3.26-1.68-4.97-.19-1.94-.26-3.84-.26-5.74,0-3.71.03-8.88,3.36-11.17,1.42-.97,3-1.19,4.71-1.32,1.29-.1,2.58-.16,3.9-.16,3.36,0,8.07.13,9.84,3.55,1.29,2.48,1.29,7.16,1.29,9.97,0,3.1-.03,7.65-2.23,10.07-.87.97-2,1.65-3.32,1.9-1.9.39-3.87.45-5.84.45-1.74,0-5.03-.1-6.68-.58Zm1.58-19.04c-.48.65-.58,1.65-.65,2.45-.1,1.36-.16,2.91-.16,4.26s0,2.78.1,4.07c.06.9.23,1.74.71,2.52.65,1.03,2.84,1.07,5.29,1.07,1.87,0,3.81-.03,4.58-1.03.81-1.06.81-4.58.81-5.97s-.1-3.52-.19-4.91c-.06-.81-.13-1.77-.61-2.42-.81-1.03-2.87-1.07-4.78-1.07s-4.29,0-5.1,1.03Z"/>
        <path d="m65.55,192.78c2.13-1.9,6.13-2.03,8.88-2.03,2.52,0,6.62.1,8.78,1.39,2.32,1.39,2.9,4.36,2.9,6.84,0,2.23-.35,4.23-1.97,5.87-1.29,1.29-2.97,1.9-4.74,2.13l-7.84.97c-1.65.19-2.71.48-2.71,2.39v.81h17.07v5.29h-22.85v-5.07c0-2.29.13-4.36,1.61-6.2,1.23-1.52,2.81-2.07,4.68-2.29l8.26-.97c2-.23,2.74-.61,2.74-2.78,0-2.78-1.65-3.1-5.78-3.1-4.97,0-5.29.68-5.36,3.84h-5.68c0-2.97.03-5.33,2-7.1Z"/>
        <path d="m94.83,192.39c2.1-1.65,6.39-1.65,8.97-1.65s6.78,0,8.84,1.94c1.42,1.35,2.03,3.29,2.03,5.23,0,2.29-.84,4.39-3.1,5.23,1.42.55,2.42,1.32,3,2.81.39,1,.55,2.13.55,3.19,0,7.1-5.74,7.55-11.36,7.55-1.87,0-3.71-.06-5.62-.35-1.87-.29-4.07-.94-5.13-2.58-1.19-1.81-1.19-4.26-1.19-6.39h5.81v.26c0,3.55.71,3.74,6.39,3.74,1.65,0,2.16-.03,2.74-.13,1.42-.23,2.52-.94,2.52-2.74,0-2.61-1.74-2.78-3.49-2.78h-5.03v-4.58h5.03c1.84,0,3.13-.29,3.13-2.45,0-.81-.26-1.65-.94-2.07-.77-.48-2.65-.55-4.84-.55-4.81,0-5.03,1.1-5.03,3.39h-5.74c.06-2.55.26-5.36,2.45-7.07Z"/>
        <path d="m127.14,210.49v5.94h-5.87v-5.94h5.87Z"/>
        <path d="m138.5,216.11c-1.29-.39-2.26-.9-3.1-2-1.06-1.39-1.52-3.26-1.68-4.97-.19-1.94-.26-3.84-.26-5.74,0-3.71.03-8.88,3.36-11.17,1.42-.97,3-1.19,4.71-1.32,1.29-.1,2.58-.16,3.9-.16,3.36,0,8.07.13,9.84,3.55,1.29,2.48,1.29,7.16,1.29,9.97,0,3.1-.03,7.65-2.23,10.07-.87.97-2,1.65-3.32,1.9-1.9.39-3.87.45-5.84.45-1.74,0-5.03-.1-6.68-.58Zm1.58-19.04c-.48.65-.58,1.65-.65,2.45-.1,1.36-.16,2.91-.16,4.26s0,2.78.1,4.07c.06.9.23,1.74.71,2.52.65,1.03,2.84,1.07,5.29,1.07,1.87,0,3.81-.03,4.58-1.03.81-1.06.81-4.58.81-5.97s-.1-3.52-.19-4.91c-.06-.81-.13-1.77-.61-2.42-.81-1.03-2.87-1.07-4.78-1.07s-4.29,0-5.1,1.03Z"/>
        <path d="m173.65,216.69c-2.61,0-6.58-.13-8.62-2-1.26-1.16-1.81-2.84-2-4.52-.23-1.87-.29-3.71-.29-5.58v-.65c0-2.71,0-6.58,1.1-9.07.55-1.23,1.48-2.42,2.71-3,2.13-1,5.78-1.13,8.13-1.13,3.03,0,7.13.19,9,2.97.97,1.45,1.1,3.07,1.1,4.74h-5.74v-.23c0-.58-.06-1.07-.52-1.49-.35-.35-.97-.55-1.42-.65-.97-.19-2.1-.19-3.49-.19-1.65,0-3.74.16-4.52,1.81-.55,1.16-.61,2.84-.65,4.16.68-.58,1.19-1,2.03-1.26,1.58-.48,3.65-.58,5.29-.58,5.87,0,9.33,1.81,9.33,8.2,0,2.71-.61,5.78-3.1,7.26-1.68,1-3.39,1.13-5.26,1.16-1.03.03-2.07.03-3.1.03Zm-3.84-11.1c-1.23.55-1.32,1.71-1.32,2.9,0,3,1.9,3.03,5.94,3.03,3.81,0,4.97-.32,4.97-3.2,0-1.1-.13-2.07-1.16-2.65-1.13-.61-2.87-.61-4.16-.61-2.1,0-3.23.06-4.26.52Z"/>
        <path d="m197.66,210.49v5.94h-5.87v-5.94h5.87Z"/>
        <path d="m216.35,191v25.43h-5.84v-20.14h-5.23v-5.29h11.07Z"/>
        <path d="m224.81,197.97c0-2,.52-4.16,2.16-5.42,1.61-1.23,3.71-1.52,5.68-1.68,1.26-.1,2.55-.13,3.81-.13,2.87,0,7.75.16,9.55,2.68.9,1.29,1.26,3.07,1.26,4.58,0,2.42-.74,4.29-3.07,5.26.77.23,1.36.48,1.94,1.1,1.16,1.26,1.55,3.36,1.55,5.07,0,2.23-.65,4.29-2.55,5.62-1.84,1.26-3.74,1.42-5.91,1.55-1.19.06-2.42.1-3.65.1-5.39,0-11.2-.45-11.2-7.33,0-1.71.42-3.71,1.58-5,.55-.61,1.16-.87,1.9-1.1-2.36-1-3.07-2.87-3.07-5.29Zm5.29,10.71c0,2.74,1.77,2.87,5.94,2.87,4.58,0,5.97-.23,5.97-3.07s-2-2.87-5.97-2.87c-4.29,0-5.94.06-5.94,3.07Zm.42-10.2c0,2.49,1.61,2.55,5.91,2.55s5.13-.39,5.13-2.71c0-2.19-1.23-2.52-5.52-2.52-4.71,0-5.52.45-5.52,2.68Z"/>
      </g>
      <g>
        <path d="m9.38,225.48v10.96c0,2.24.92,2.52,4.05,2.52s4.07-.28,4.07-2.52v-10.96h3.82v11.31c0,1.32-.23,2.88-1.17,3.88-1.58,1.66-4.57,1.79-6.72,1.79s-5.14-.13-6.68-1.75c-.98-1.05-1.22-2.56-1.22-3.93v-11.31h3.84Z"/>
        <path d="m28.84,229.72l.06,1.3c.98-1.39,2.58-1.47,4.14-1.47,2.92,0,4.93.75,4.93,4.05v8.68h-3.54v-7.96c0-1.45-1.41-1.51-2.52-1.51-2.56,0-2.88.75-2.88,2.43v7.04h-3.54v-12.56h3.35Z"/>
        <path d="m45.91,225.48v3.09h-3.63v-3.09h3.63Zm-.02,4.25v12.56h-3.56v-12.56h3.56Z"/>
        <path d="m53.36,229.72l3.14,9.17,3.11-9.17h3.9l-4.8,12.56h-4.46l-4.8-12.56h3.9Z"/>
        <path d="m69.87,237v.66c0,1.47.6,1.62,3.24,1.62,1.92,0,2.58-.08,2.6-1.39h3.54c-.11,4.31-2.82,4.57-6.4,4.57-1.98,0-4.93-.13-5.91-2.15-.34-.7-.47-1.47-.53-2.28-.06-.85-.09-1.64-.09-2.47,0-1.64.06-3.71,1.41-4.88,1.24-1.07,3.26-1.11,5.23-1.11,1.81,0,3.95.04,5.27,1.41.62.62.9,1.47.96,2.33.06.92.06,1.83.06,2.75v.96h-9.39Zm2.84-4.25c-2.45,0-2.84.3-2.84,1.77h5.84c0-1.51-.43-1.77-3.01-1.77Z"/>
        <path d="m86.32,229.72l.11,1.26c.28-.43.49-.68.96-.92.81-.41,1.83-.51,2.75-.51.62,0,1.26.02,1.9.04v3.43c-.6-.04-1.22-.06-1.81-.06-1.41,0-3.78.11-3.78,2.01v7.32h-3.54v-12.56h3.41Z"/>
        <path d="m104.03,233.75v-.23c0-.72-.28-.96-2.62-.96-1.39,0-1.79,0-2.24.15-.38.13-.62.38-.62.85,0,.55.43.62.87.66l5.23.43c2.56.21,3.24,1.32,3.24,3.78,0,1.47-.45,3.05-1.94,3.56-1.19.41-2.94.47-4.56.47-1.98,0-4.86-.02-5.76-1.62-.49-.9-.51-1.98-.51-2.99h3.37v.6c0,.68.15,1.02,3.03,1.02,2.52,0,2.94-.24,2.94-1.11,0-.62-.28-.81-1-.88l-5.38-.49c-2.09-.19-2.92-1.51-2.92-3.5,0-3.82,3.03-3.95,6.02-3.95,1.54,0,3.95.02,5.23.88,1.09.73,1.05,2.18,1.07,3.33h-3.43Z"/>
        <path d="m115.68,225.48v3.09h-3.63v-3.09h3.63Zm-.02,4.25v12.56h-3.56v-12.56h3.56Z"/>
        <path d="m121.87,226.69h3.54v3.03h3.78v3.26h-3.78v4.84c0,1.22.49,1.3,1.96,1.3.64,0,1.28-.02,1.9-.04v3.26c-.51.06-1.05.11-1.58.11-1.28,0-3.84-.02-4.84-.83-.87-.7-.98-1.6-.98-2.65v-5.99h-2.5v-3.26h2.5v-3.03Z"/>
        <path d="m135.57,229.72l3.22,7.02,2.96-7.02h3.9l-5.76,12.63c-.43.92-.94,1.9-1.83,2.32-.9.43-2.37.49-3.35.49-.68,0-1.37-.04-2.05-.13v-3.14c.68.06,1.37.13,2.07.13,1.22,0,1.73-.04,2.15-.98l.23-.53-5.52-10.79h3.97Z"/>
        <path d="m167.96,230.08c.75.32,1.3.85,1.64,1.54.55,1.13.62,3.46.62,4.71,0,1.11-.11,2.96-.58,3.95-.34.7-.87,1.28-1.58,1.62-1.07.51-2.75.55-4.67.55s-4.48-.06-5.46-2.07c-.55-1.11-.62-3.46-.62-4.71,0-.98.09-1.98.26-2.94.13-.7.45-1.37.94-1.9,1.19-1.28,3.22-1.28,5.27-1.28,1.22,0,3.05.04,4.18.53Zm-4.18,9.11c2.73,0,2.92-.21,2.92-3.65,0-2.5-.43-2.73-2.92-2.73-2.92,0-2.94.47-2.94,3.2s.04,3.18,2.94,3.18Z"/>
        <path d="m175.21,229.55c0-1.13.04-2.52.92-3.35.81-.77,2.11-.81,3.18-.88.3-.02.7-.02,1-.02.49,0,.98.02,1.47.04v3.07c-.81-.02-.98-.02-1.26-.02-1.19,0-1.79.13-1.79.94v.38h3.05v3.26h-3.05v9.3h-3.52v-9.3h-1.96v-3.26h1.96v-.17Z"/>
        <path d="m210.97,242.29h-4.31l-1.26-3.5h-6.68l-1.26,3.5h-4.31l6.4-16.81h4.99l6.42,16.81Zm-8.92-13.1l-2.3,6.29h4.61l-2.3-6.29Z"/>
        <path d="m218.21,225.48v3.09h-3.63v-3.09h3.63Zm-.02,4.25v12.56h-3.56v-12.56h3.56Z"/>
        <path d="m233.97,229.72v3.29l-6.74,5.99h6.87v3.29h-11.82v-3.29l6.87-5.99h-6.66v-3.29h11.48Z"/>
        <path d="m246.82,242.29l-.06-1.3c-.98,1.39-2.58,1.47-4.14,1.47-2.92,0-4.93-.73-4.93-4.05v-8.68h3.54v7.96c0,1.45,1.41,1.51,2.52,1.51,2.56,0,2.88-.73,2.88-2.43v-7.04h3.54v12.56h-3.35Z"/>
      </g>
    </g>
  </g>
</svg>